<svg width="675" height="675" viewBox="0 0 675 675" fill="none" xmlns="http://www.w3.org/2000/svg">
<g filter="url(#filter0_d_50_113)">
<circle cx="337.659" cy="337.272" r="265.94" fill="#9264F4"/>
</g>
<rect width="354.587" height="354.587" transform="translate(160.383 159.969)" fill="#9264F4"/>
<path d="M376.202 231.549C374.753 219.957 361.058 214.553 352.083 222.032L277.929 283.827C276.601 284.934 274.928 285.54 273.2 285.54H215.757C205.558 285.54 197.289 293.808 197.289 304.008V370.493C197.289 380.692 205.558 388.961 215.757 388.961H273.2C274.928 388.961 276.601 389.567 277.929 390.673L352.083 452.468C361.058 459.948 374.753 454.543 376.202 442.951L377.618 431.626C385.452 368.953 385.452 305.548 377.618 242.874L376.202 231.549Z" fill="white"/>
<path d="M454.485 247.802C460.296 245.881 466.564 249.033 468.485 254.843C477.061 280.772 481.698 308.481 481.698 337.25C481.698 366.02 477.061 393.729 468.485 419.658C466.564 425.468 460.296 428.62 454.485 426.698C448.675 424.777 445.523 418.509 447.444 412.699C455.287 388.987 459.536 363.626 459.536 337.25C459.536 310.875 455.287 285.514 447.444 261.802C445.523 255.992 448.675 249.724 454.485 247.802Z" fill="white"/>
<path d="M426.77 277.38C424.66 271.635 418.292 268.69 412.548 270.8C406.803 272.911 403.858 279.278 405.968 285.023C411.945 301.288 415.212 318.875 415.212 337.25C415.212 352.492 412.964 367.188 408.789 381.037C408.556 381.808 408.318 382.577 408.073 383.344C407.414 385.408 406.712 387.453 405.968 389.478C403.858 395.222 406.803 401.59 412.548 403.7C418.292 405.811 424.66 402.865 426.77 397.121C427.624 394.797 428.43 392.451 429.186 390.082C429.466 389.202 429.74 388.32 430.007 387.434C434.801 371.533 437.374 354.682 437.374 337.25C437.374 316.229 433.633 296.057 426.77 277.38Z" fill="white"/>
<defs>
<filter id="filter0_d_50_113" x="0.8013" y="0.414581" width="673.718" height="673.714" filterUnits="userSpaceOnUse" color-interpolation-filters="sRGB">
<feFlood flood-opacity="0" result="BackgroundImageFix"/>
<feColorMatrix in="SourceAlpha" type="matrix" values="0 0 0 0 0 0 0 0 0 0 0 0 0 0 0 0 0 0 127 0" result="hardAlpha"/>
<feOffset/>
<feGaussianBlur stdDeviation="35.4587"/>
<feComposite in2="hardAlpha" operator="out"/>
<feColorMatrix type="matrix" values="0 0 0 0 0 0 0 0 0 0 0 0 0 0 0 0 0 0 0.25 0"/>
<feBlend mode="normal" in2="BackgroundImageFix" result="effect1_dropShadow_50_113"/>
<feBlend mode="normal" in="SourceGraphic" in2="effect1_dropShadow_50_113" result="shape"/>
</filter>
</defs>
</svg>
