<svg width="76" height="76" viewBox="0 0 76 76" fill="none" xmlns="http://www.w3.org/2000/svg">
<g filter="url(#filter0_d_1_1899)">
<circle cx="38" cy="38" r="30" fill="#9264F4"/>
</g>
<rect width="40" height="40" transform="translate(18 18)" fill="#9264F4"/>
<path d="M46.7928 27.1163C47.5181 27.3835 48 28.0745 48 28.8475L48 47.1517C48 47.9247 47.5181 48.6157 46.7928 48.883C45.4205 49.3886 43.9129 49.3886 42.5405 48.883C41.8152 48.6157 41.3333 47.9247 41.3333 47.1517L41.3333 28.8475C41.3333 28.0745 41.8152 27.3835 42.5405 27.1163C43.9129 26.6107 45.4205 26.6107 46.7928 27.1163Z" fill="white"/>
<path d="M33.4595 27.1163C34.1848 27.3835 34.6667 28.0745 34.6667 28.8475L34.6667 47.1517C34.6667 47.9247 34.1848 48.6157 33.4595 48.883C32.0871 49.3886 30.5795 49.3886 29.2072 48.883C28.4819 48.6157 28 47.9247 28 47.1517L28 28.8475C28 28.0745 28.4819 27.3835 29.2072 27.1163C30.5795 26.6107 32.0871 26.6107 33.4595 27.1163Z" fill="white"/>
<defs>
<filter id="filter0_d_1_1899" x="0" y="0" width="76" height="76" filterUnits="userSpaceOnUse" color-interpolation-filters="sRGB">
<feFlood flood-opacity="0" result="BackgroundImageFix"/>
<feColorMatrix in="SourceAlpha" type="matrix" values="0 0 0 0 0 0 0 0 0 0 0 0 0 0 0 0 0 0 127 0" result="hardAlpha"/>
<feOffset/>
<feGaussianBlur stdDeviation="4"/>
<feComposite in2="hardAlpha" operator="out"/>
<feColorMatrix type="matrix" values="0 0 0 0 0 0 0 0 0 0 0 0 0 0 0 0 0 0 0.25 0"/>
<feBlend mode="normal" in2="BackgroundImageFix" result="effect1_dropShadow_1_1899"/>
<feBlend mode="normal" in="SourceGraphic" in2="effect1_dropShadow_1_1899" result="shape"/>
</filter>
</defs>
</svg>
